<?xml version="1.0" encoding="UTF-8" standalone="no"?>
<!-- Created with Inkscape (http://www.inkscape.org/) -->

<svg
   xmlns:dc="http://purl.org/dc/elements/1.1/"
   xmlns:cc="http://creativecommons.org/ns#"
   xmlns:rdf="http://www.w3.org/1999/02/22-rdf-syntax-ns#"
   xmlns:svg="http://www.w3.org/2000/svg"
   xmlns="http://www.w3.org/2000/svg"
   xmlns:sodipodi="http://sodipodi.sourceforge.net/DTD/sodipodi-0.dtd"
   xmlns:inkscape="http://www.inkscape.org/namespaces/inkscape"
   version="1.1"
   id="svg2"
   xml:space="preserve"
   width="42.757545"
   height="30"
   viewBox="0 0 42.757547 29.999998"
   sodipodi:docname="cuni_en.svg"
   inkscape:version="0.92.5 (2060ec1f9f, 2020-04-08)"><metadata
     id="metadata8"><rdf:RDF><cc:Work
         rdf:about=""><dc:format>image/svg+xml</dc:format><dc:type
           rdf:resource="http://purl.org/dc/dcmitype/StillImage" /><dc:title></dc:title></cc:Work></rdf:RDF></metadata><defs
     id="defs6"><clipPath
       clipPathUnits="userSpaceOnUse"
       id="clipPath18"><path
         d="M 0,267.862 H 351.37 V 0 H 0 Z"
         id="path16"
         inkscape:connector-curvature="0" /></clipPath></defs><sodipodi:namedview
     pagecolor="#ffffff"
     bordercolor="#666666"
     borderopacity="1"
     objecttolerance="10"
     gridtolerance="10"
     guidetolerance="10"
     inkscape:pageopacity="0"
     inkscape:pageshadow="2"
     inkscape:window-width="1848"
     inkscape:window-height="1016"
     id="namedview4"
     showgrid="false"
     fit-margin-top="0"
     fit-margin-left="0"
     fit-margin-right="0"
     fit-margin-bottom="0"
     inkscape:zoom="2.6431522"
     inkscape:cx="149.52414"
     inkscape:cy="-36.011023"
     inkscape:window-x="72"
     inkscape:window-y="27"
     inkscape:window-maximized="1"
     inkscape:current-layer="g10" /><g
     id="g10"
     inkscape:groupmode="layer"
     inkscape:label="cuni_en"
     transform="matrix(1.3333333,0,0,-1.3333333,-69.126264,86.315977)"><g
       id="g12"
       transform="matrix(0.12947374,0,0,0.12947374,45.132172,36.768404)"><g
         id="g14"
         clip-path="url(#clipPath18)"><g
           id="g20"
           transform="translate(222.9733,192.6544)"><path
             d="m 0,0 c -0.951,0.534 -1.978,0.803 -2.999,0.843 1.448,3.787 1.492,7.85 0.296,11.533 -3.767,-0.898 -7.212,-3.052 -9.69,-6.261 -0.566,0.851 -1.331,1.586 -2.282,2.12 -3.237,1.817 -7.345,0.645 -9.175,-2.617 -1.831,-3.261 -0.691,-7.378 2.546,-9.195 1.674,-0.939 3.578,-1.071 5.282,-0.537 -2.989,-3.225 -7.251,-5.251 -11.995,-5.251 -7.453,0 -13.716,4.989 -15.698,11.802 1.223,-1.283 2.936,-2.088 4.841,-2.088 3.711,0 6.72,3.032 6.72,6.772 0,3.741 -3.009,6.773 -6.72,6.773 -1.091,0 -2.118,-0.268 -3.029,-0.733 -0.59,4.011 -2.54,7.576 -5.385,10.202 -2.845,-2.626 -4.796,-6.191 -5.386,-10.202 -0.911,0.465 -1.937,0.733 -3.028,0.733 -3.712,0 -6.721,-3.032 -6.721,-6.773 0,-3.74 3.009,-6.772 6.721,-6.772 1.905,0 3.617,0.805 4.84,2.088 -1.982,-6.813 -8.245,-11.802 -15.698,-11.802 -4.744,0 -9.005,2.026 -11.994,5.251 1.704,-0.534 3.608,-0.402 5.281,0.537 3.237,1.817 4.377,5.934 2.547,9.195 -1.831,3.262 -5.939,4.434 -9.176,2.617 -0.951,-0.534 -1.715,-1.269 -2.282,-2.12 -2.477,3.209 -5.923,5.363 -9.689,6.261 -1.196,-3.683 -1.153,-7.746 0.296,-11.533 -1.022,-0.04 -2.048,-0.309 -3,-0.843 -3.237,-1.816 -4.377,-5.933 -2.546,-9.195 1.83,-3.262 5.938,-4.433 9.175,-2.617 1.182,0.663 2.074,1.637 2.652,2.76 1.868,-3.536 2.929,-7.564 2.929,-11.843 0,-1.58 -0.145,-3.127 -0.421,-4.627 -0.051,-0.281 0.129,-0.546 0.411,-0.588 10.075,-1.499 22.13,-2.373 35.089,-2.373 12.958,0 25.014,0.874 35.088,2.373 0.282,0.042 0.463,0.307 0.411,0.588 -0.276,1.5 -0.421,3.047 -0.421,4.627 0,4.279 1.061,8.307 2.929,11.843 0.579,-1.123 1.471,-2.097 2.652,-2.76 3.237,-1.816 7.345,-0.645 9.176,2.617 C 4.377,-5.933 3.237,-1.816 0,0"
             style="fill:#c61745;fill-opacity:1;fill-rule:nonzero;stroke:none"
             id="path22"
             inkscape:connector-curvature="0" /></g><g
           id="g24"
           transform="translate(84.8218,120.9222)"><path
             d="m 0,0 c 0,10.753 7.345,17.81 17.33,17.81 3.552,0 7.68,-0.817 12.24,-1.872 V 5.425 h -0.287 c -2.689,4.032 -6.721,9.984 -10.754,9.984 -4.08,0 -7.824,-6.288 -7.824,-15.409 0,-9.073 3.744,-15.361 7.824,-15.361 3.649,0 7.346,4.992 10.754,10.081 H 29.57 V -15.89 C 25.01,-16.993 21.218,-17.81 16.945,-17.81 7.345,-17.81 0,-10.753 0,0"
             style="fill:#173a58;fill-opacity:1;fill-rule:nonzero;stroke:none"
             id="path26"
             inkscape:connector-curvature="0" /></g><g
           id="g28"
           transform="translate(130.9985,103.6888)"><path
             d="m 0,0 h -12.001 v 0.191 c 0,0.193 1.488,4.37 1.488,8.017 v 18.626 c 0,3.648 -1.584,7.633 -1.584,7.825 l -0.049,0.192 1.489,0.192 9.169,0.96 V 20.689 c 1.536,2.161 4.032,4.081 7.633,4.081 4.463,0 7.968,-2.88 7.968,-7.969 V 8.208 c 0,-3.647 1.488,-7.824 1.488,-8.017 V 0 h -12 v 0.191 c 0,0.193 1.488,4.37 1.488,8.017 v 7.297 c 0,2.832 -1.777,3.744 -3.793,3.744 -0.912,0 -1.872,-0.191 -2.784,-0.479 V 8.208 C -1.488,4.561 0,0.384 0,0.191 Z"
             style="fill:#173a58;fill-opacity:1;fill-rule:nonzero;stroke:none"
             id="path30"
             inkscape:connector-curvature="0" /></g><g
           id="g32"
           transform="translate(162.6782,108.057)"><path
             d="M 0,0 C 0.672,0 1.248,0.192 1.824,0.624 1.728,1.152 1.681,1.68 1.681,2.304 V 8.353 C 1.2,8.497 0.72,8.545 0.239,8.545 -2.544,8.545 -3.601,6.816 -3.601,4.513 -3.601,1.968 -2.353,0 0,0 m -12.962,3.072 c 0,4.897 4.32,7.969 9.121,7.969 1.393,0 3.649,-0.288 5.522,-1.057 v 2.641 c 0,3.265 0,5.377 -1.057,5.377 -2.688,0 -11.232,-6.817 -11.232,-6.817 h -0.241 v 7.585 c 4.848,1.104 9.409,1.631 12.049,1.631 7.153,0 9.504,-3.839 9.504,-8.496 V 3.648 c 0,-3.072 0.529,-4.608 3.025,-3.312 l 0.144,-0.144 c -0.192,-2.784 -2.257,-5.041 -5.904,-5.041 -2.977,0 -5.04,1.489 -5.857,4.177 -1.008,-1.872 -3.36,-4.177 -7.297,-4.177 -5.184,0 -7.777,4.177 -7.777,7.921"
             style="fill:#173a58;fill-opacity:1;fill-rule:nonzero;stroke:none"
             id="path34"
             inkscape:connector-curvature="0" /></g><g
           id="g36"
           transform="translate(191.2856,103.6888)"><path
             d="m 0,0 h -12.001 v 0.191 c 0,0.193 1.488,4.37 1.488,8.017 v 8.065 c 0,3.649 -1.488,7.825 -1.488,8.017 v 0.191 H -1.488 V 19.249 C 0.24,23.138 3.169,26.45 8.929,24.578 L 7.489,15.073 H 7.249 C 5.28,17.377 2.112,19.777 -1.488,18.001 V 8.208 C -1.488,4.561 0,0.384 0,0.191 Z"
             style="fill:#173a58;fill-opacity:1;fill-rule:nonzero;stroke:none"
             id="path38"
             inkscape:connector-curvature="0" /></g><g
           id="g40"
           transform="translate(214.5171,103.6888)"><path
             d="m 0,0 h -12.001 v 0.191 c 0,0.193 1.488,4.37 1.488,8.017 v 18.626 c 0,3.648 -1.584,7.633 -1.584,7.825 l -0.048,0.192 1.489,0.192 9.168,0.96 V 8.208 C -1.488,4.561 0,0.384 0,0.191 Z"
             style="fill:#173a58;fill-opacity:1;fill-rule:nonzero;stroke:none"
             id="path42"
             inkscape:connector-curvature="0" /></g><g
           id="g44"
           transform="translate(226.9009,117.4662)"><path
             d="M 0,0 6.097,1.92 C 6.097,4.8 5.856,8.784 3.024,8.784 0.239,8.784 -0.144,4.848 -0.097,1.872 -0.097,1.248 -0.048,0.624 0,0 m -9.89,-1.633 c 0,8.066 5.329,12.625 13.058,12.625 9.121,0 11.761,-6.672 11.761,-12.24 H 0.144 c 0.576,-4.321 2.449,-7.297 6.96,-7.297 2.352,0 4.321,0.576 7.057,2.112 l 0.192,-0.144 c -0.959,-3.072 -4.752,-7.777 -11.424,-7.777 -5.953,0 -12.819,3.745 -12.819,12.721"
             style="fill:#173a58;fill-opacity:1;fill-rule:nonzero;stroke:none"
             id="path46"
             inkscape:connector-curvature="0" /></g><g
           id="g48"
           transform="translate(246.0034,104.9847)"><path
             d="M 0,0 V 7.873 H 0.24 C 3.456,4.801 7.008,0.576 10.609,0.576 c 1.488,0 2.832,0.72 2.832,2.208 0,1.968 -2.352,2.689 -6.289,4.128 -5.28,1.921 -8.064,4.897 -8.064,8.833 0,4.849 4.32,7.729 11.041,7.729 1.92,0 5.424,-0.24 9.121,-1.632 v -7.585 h -0.24 c -2.977,3.217 -6.385,6.961 -9.842,6.961 -1.295,0 -2.64,-0.529 -2.64,-1.968 0,-2.017 2.64,-2.881 6.288,-4.177 6.289,-2.208 7.729,-5.232 7.729,-8.448 0,-6.049 -5.328,-8.449 -10.512,-8.449 C 8.017,-1.824 4.465,-1.488 0,0"
             style="fill:#173a58;fill-opacity:1;fill-rule:nonzero;stroke:none"
             id="path50"
             inkscape:connector-curvature="0" /></g><g
           id="g52"
           transform="translate(53.3327,66.4382)"><path
             d="m 0,0 v 11.761 c 0,3.648 -1.488,7.825 -1.488,8.016 v 0.193 h 12.577 v -0.193 c 0,-0.191 -1.487,-4.368 -1.487,-8.016 V -1.152 c 0,-7.057 2.878,-10.081 7.488,-10.081 4.607,0 7.464,3.072 7.464,9.745 v 9.169 c 0,5.472 -2.975,11.713 -2.975,12.001 v 0.288 h 9.154 v -0.288 c 0,-0.288 -2.976,-6.529 -2.976,-12.001 v -9.169 c 0,-9.793 -5.963,-13.682 -13.26,-13.682 C 7.681,-15.17 0,-11.665 0,0"
             style="fill:#173a58;fill-opacity:1;fill-rule:nonzero;stroke:none"
             id="path54"
             inkscape:connector-curvature="0" /></g><g
           id="g56"
           transform="translate(97.5417,51.8444)"><path
             d="m 0,0 h -12.002 v 0.192 c 0,0.193 1.488,4.369 1.488,8.017 v 8.064 c 0,3.649 -1.488,7.826 -1.488,8.017 v 0.192 h 10.514 v -4.08 c 1.248,2.16 3.792,4.369 7.679,4.369 4.465,0 7.969,-2.88 7.969,-7.969 V 8.209 c 0,-3.648 1.488,-7.824 1.488,-8.017 V 0 h -12 v 0.192 c 0,0.193 1.488,4.369 1.488,8.017 v 7.297 c 0,2.832 -1.681,3.744 -3.456,3.792 -1.104,0.048 -2.208,-0.288 -3.168,-0.72 V 8.209 C -1.488,4.561 0,0.385 0,0.192 Z"
             style="fill:#173a58;fill-opacity:1;fill-rule:nonzero;stroke:none"
             id="path58"
             inkscape:connector-curvature="0" /></g><g
           id="g60"
           transform="translate(117.8441,83.7194)"><path
             d="M 0,0 C 0,2.977 2.447,5.328 5.424,5.328 8.4,5.328 10.848,2.977 10.848,0 10.848,-2.977 8.352,-5.328 5.424,-5.328 2.543,-5.328 0,-2.977 0,0 M 11.856,-31.875 H -0.145 v 0.192 c 0,0.193 1.489,4.369 1.489,8.017 v 8.064 c 0,3.649 -1.489,7.826 -1.489,8.017 v 0.192 h 10.513 v -16.273 c 0,-3.648 1.488,-7.824 1.488,-8.017 z"
             style="fill:#173a58;fill-opacity:1;fill-rule:nonzero;stroke:none"
             id="path62"
             inkscape:connector-curvature="0" /></g><g
           id="g64"
           transform="translate(169.78,65.6217)"><path
             d="m 0,0 6.097,1.92 c 0,2.881 -0.24,6.865 -3.073,6.865 -2.784,0 -3.168,-3.936 -3.12,-6.913 C -0.096,1.248 -0.048,0.624 0,0 m -9.889,-1.632 c 0,8.065 5.328,12.625 13.057,12.625 9.121,0 11.762,-6.673 11.762,-12.241 H 0.145 c 0.576,-4.32 2.448,-7.297 6.96,-7.297 2.352,0 4.321,0.576 7.057,2.112 l 0.192,-0.143 c -0.96,-3.072 -4.752,-7.778 -11.425,-7.778 -5.952,0 -12.818,3.746 -12.818,12.722"
             style="fill:#173a58;fill-opacity:1;fill-rule:nonzero;stroke:none"
             id="path66"
             inkscape:connector-curvature="0" /></g><g
           id="g68"
           transform="translate(199.8278,51.8444)"><path
             d="m 0,0 h -12.001 v 0.192 c 0,0.193 1.488,4.369 1.488,8.017 v 8.064 c 0,3.649 -1.488,7.826 -1.488,8.017 v 0.192 H -1.488 V 19.25 c 1.728,3.889 4.657,7.2 10.417,5.328 L 7.489,15.073 H 7.249 C 5.28,17.378 2.112,19.778 -1.488,18.002 V 8.209 C -1.488,4.561 0,0.385 0,0.192 Z"
             style="fill:#173a58;fill-opacity:1;fill-rule:nonzero;stroke:none"
             id="path70"
             inkscape:connector-curvature="0" /></g><g
           id="g72"
           transform="translate(211.6859,53.1403)"><path
             d="m 0,0 v 7.873 h 0.239 c 3.217,-3.072 6.77,-7.297 10.369,-7.297 1.489,0 2.832,0.721 2.832,2.209 0,1.968 -2.351,2.688 -6.288,4.128 -5.28,1.92 -8.064,4.897 -8.064,8.833 0,4.849 4.32,7.729 11.041,7.729 1.92,0 5.425,-0.241 9.12,-1.632 v -7.585 h -0.24 c -2.976,3.216 -6.384,6.961 -9.84,6.961 -1.297,0 -2.641,-0.529 -2.641,-1.969 0,-2.016 2.641,-2.88 6.289,-4.176 6.288,-2.209 7.729,-5.232 7.729,-8.449 0,-6.049 -5.328,-8.448 -10.514,-8.448 C 8.017,-1.823 4.464,-1.487 0,0"
             style="fill:#173a58;fill-opacity:1;fill-rule:nonzero;stroke:none"
             id="path74"
             inkscape:connector-curvature="0" /></g><g
           id="g76"
           transform="translate(236.7735,83.7194)"><path
             d="M 0,0 C 0,2.977 2.449,5.328 5.425,5.328 8.4,5.328 10.85,2.977 10.85,0 10.85,-2.977 8.354,-5.328 5.425,-5.328 2.545,-5.328 0,-2.977 0,0 M 11.857,-31.875 H -0.144 v 0.192 c 0,0.193 1.488,4.369 1.488,8.017 v 8.064 c 0,3.649 -1.488,7.826 -1.488,8.017 v 0.192 h 10.513 v -16.273 c 0,-3.648 1.488,-7.824 1.488,-8.017 z"
             style="fill:#173a58;fill-opacity:1;fill-rule:nonzero;stroke:none"
             id="path78"
             inkscape:connector-curvature="0" /></g><g
           id="g80"
           transform="translate(254.2461,59.7175)"><path
             d="m 0,0 v 14.209 h -3.504 v 2.4 C 1.92,19.441 5.664,22.37 8.977,25.73 v -9.121 h 6.432 v -2.4 H 8.977 L 9.024,0.816 c 0,-2.448 1.345,-3.36 3.073,-3.36 0.96,0 2.016,0.288 3.072,0.672 C 14.113,-5.089 11.857,-8.449 7.104,-8.449 2.736,-8.449 0,-5.568 0,0"
             style="fill:#173a58;fill-opacity:1;fill-rule:nonzero;stroke:none"
             id="path82"
             inkscape:connector-curvature="0" /></g><g
           id="g84"
           transform="translate(275.2835,51.5085)"><path
             d="m 0,0 0.145,0.048 c 3.744,-3.985 7.728,-5.904 9.6,-1.44 l 0.24,0.577 -8.688,18.241 c -1.584,3.312 -4.177,7.009 -4.273,7.2 v 0.192 h 14.114 v -0.192 c 0,-0.144 -1.729,-3.648 -0.337,-6.624 l 3.793,-7.921 3.263,7.824 c 1.297,3.025 -0.575,6.577 -0.575,6.721 v 0.192 h 6.96 v -0.192 c -0.096,-0.191 -2.639,-4.128 -4.08,-7.488 L 11.521,-3.12 C 8.977,-9.265 5.089,-10.513 -1.728,-8.16 Z"
             style="fill:#173a58;fill-opacity:1;fill-rule:nonzero;stroke:none"
             id="path86"
             inkscape:connector-curvature="0" /></g><g
           id="g88"
           transform="translate(131.7631,76.1823)"><path
             d="m 0,0 v 0.144 h 14.258 v -0.192 c 0,-0.144 -1.824,-3.648 -0.481,-6.672 l 4.081,-9.121 3.745,9.072 c 1.248,3.025 -0.624,6.577 -0.624,6.721 v 0.192 h 7.44 v -0.192 c 0,-0.192 -2.64,-4.128 -4.033,-7.489 l -7.104,-16.801 h -5.52 L 4.177,-7.488 C 2.688,-4.128 0,-0.192 0,0"
             style="fill:#173a58;fill-opacity:1;fill-rule:nonzero;stroke:none"
             id="path90"
             inkscape:connector-curvature="0" /></g></g></g></g></svg>