<?xml version="1.0" encoding="UTF-8" standalone="no"?>
<!-- Created with Inkscape (http://www.inkscape.org/) -->

<svg
   xmlns:dc="http://purl.org/dc/elements/1.1/"
   xmlns:cc="http://creativecommons.org/ns#"
   xmlns:rdf="http://www.w3.org/1999/02/22-rdf-syntax-ns#"
   xmlns:svg="http://www.w3.org/2000/svg"
   xmlns="http://www.w3.org/2000/svg"
   xmlns:sodipodi="http://sodipodi.sourceforge.net/DTD/sodipodi-0.dtd"
   xmlns:inkscape="http://www.inkscape.org/namespaces/inkscape"
   version="1.1"
   id="svg2"
   xml:space="preserve"
   width="45.506268"
   height="30"
   viewBox="0 0 45.506267 30"
   sodipodi:docname="cuni_cs.svg"
   inkscape:version="0.92.5 (2060ec1f9f, 2020-04-08)"><metadata
     id="metadata8"><rdf:RDF><cc:Work
         rdf:about=""><dc:format>image/svg+xml</dc:format><dc:type
           rdf:resource="http://purl.org/dc/dcmitype/StillImage" /><dc:title></dc:title></cc:Work></rdf:RDF></metadata><defs
     id="defs6"><clipPath
       clipPathUnits="userSpaceOnUse"
       id="clipPath18"><path
         d="M 0,267.862 H 353.594 V 0 H 0 Z"
         id="path16"
         inkscape:connector-curvature="0" /></clipPath></defs><sodipodi:namedview
     pagecolor="#ffffff"
     bordercolor="#666666"
     borderopacity="1"
     objecttolerance="10"
     gridtolerance="10"
     guidetolerance="10"
     inkscape:pageopacity="0"
     inkscape:pageshadow="2"
     inkscape:window-width="1848"
     inkscape:window-height="1016"
     id="namedview4"
     showgrid="false"
     fit-margin-top="0"
     fit-margin-left="0"
     fit-margin-right="0"
     fit-margin-bottom="0"
     inkscape:zoom="0.93449541"
     inkscape:cx="0.15717378"
     inkscape:cy="183.83926"
     inkscape:window-x="72"
     inkscape:window-y="27"
     inkscape:window-maximized="1"
     inkscape:current-layer="g10" /><g
     id="g10"
     inkscape:groupmode="layer"
     inkscape:label="cuni_cs"
     transform="matrix(1.3333333,0,0,-1.3333333,-69.126264,98.357999)"><g
       id="g12"
       transform="matrix(0.13657098,0,0,0.13657098,44.764218,44.266711)"><g
         id="g14"
         clip-path="url(#clipPath18)"><g
           id="g20"
           transform="translate(101.9679,58.9489)"><path
             d="m 0,0 -6.433,9.889 c -0.143,0.24 -0.191,0.336 0.096,0.576 l 4.129,3.792 4.513,4.177 c 4.032,3.696 2.303,8.448 2.303,8.736 v 0.288 h 11.377 v -0.24 C 13.97,25.875 11.81,23.906 9.121,21.458 L 1.488,14.354 11.617,-0.144 c 2.065,-2.976 5.376,-6.577 5.376,-6.769 V -7.104 H 2.208 C 2.208,-6.913 1.969,-3.072 0,0 m -5.521,-7.104 h -12.577 v 0.191 c 0,0.192 1.489,4.369 1.489,8.017 V 19.25 c 0,3.648 -1.489,7.824 -1.489,8.017 v 0.191 h 12.577 v -0.191 c 0,-0.193 -1.488,-4.369 -1.488,-8.017 V 1.104 c 0,-3.648 1.488,-7.825 1.488,-8.017 z"
             style="fill:#173a58;fill-opacity:1;fill-rule:nonzero;stroke:none"
             id="path22"
             inkscape:connector-curvature="0" /></g><g
           id="g24"
           transform="translate(133.1193,56.2126)"><path
             d="M 0,0 C 0.672,0 1.248,0.192 1.824,0.624 1.729,1.152 1.681,1.68 1.681,2.304 V 8.353 C 1.2,8.497 0.72,8.545 0.24,8.545 -2.544,8.545 -3.601,6.817 -3.601,4.513 -3.601,1.968 -2.353,0 0,0 m -12.961,3.072 c 0,4.897 4.32,7.969 9.121,7.969 1.392,0 3.648,-0.288 5.521,-1.056 v 2.64 c 0,3.265 0,5.377 -1.057,5.377 -2.688,0 -11.232,-6.817 -11.232,-6.817 h -0.241 V 18.77 C -6,19.874 -1.44,20.402 1.2,20.402 c 7.153,0 9.505,-3.84 9.505,-8.497 V 3.648 c 0,-3.072 0.528,-4.608 3.024,-3.312 l 0.144,-0.144 c -0.191,-2.784 -2.256,-5.04 -5.904,-5.04 -2.977,0 -5.04,1.488 -5.857,4.176 -1.008,-1.872 -3.36,-4.176 -7.297,-4.176 -5.184,0 -7.776,4.176 -7.776,7.92"
             style="fill:#173a58;fill-opacity:1;fill-rule:nonzero;stroke:none"
             id="path26"
             inkscape:connector-curvature="0" /></g><g
           id="g28"
           transform="translate(161.1481,51.8444)"><path
             d="m 0,0 h -12.001 v 0.192 c 0,0.192 1.487,4.369 1.487,8.016 v 8.065 c 0,3.649 -1.487,7.825 -1.487,8.017 v 0.192 H -1.488 V 19.25 c 1.727,3.888 4.656,7.2 10.417,5.328 L 7.488,15.073 H 7.248 C 5.28,17.377 2.112,19.778 -1.488,18.001 V 8.208 C -1.488,4.561 0,0.384 0,0.192 Z"
             style="fill:#173a58;fill-opacity:1;fill-rule:nonzero;stroke:none"
             id="path30"
             inkscape:connector-curvature="0" /></g><g
           id="g32"
           transform="translate(184.1394,51.8444)"><path
             d="m 0,0 h -12.001 v 0.192 c 0,0.192 1.488,4.369 1.488,8.016 v 18.626 c 0,3.648 -1.584,7.633 -1.584,7.825 l -0.049,0.192 1.489,0.192 9.169,0.96 V 8.208 C -1.488,4.561 0,0.384 0,0.192 Z"
             style="fill:#173a58;fill-opacity:1;fill-rule:nonzero;stroke:none"
             id="path34"
             inkscape:connector-curvature="0" /></g><g
           id="g36"
           transform="translate(203.4353,64.1335)"><path
             d="M 0,0 C 0,4.752 -0.432,10.321 -3.264,10.321 -6.145,10.321 -6.48,4.705 -6.48,0 c 0,-4.752 0.335,-10.657 3.216,-10.657 C -0.432,-10.657 0,-4.752 0,0 m -16.562,0 c 0,8.833 6.29,12.481 13.298,12.481 6.96,0 13.345,-3.696 13.345,-12.481 0,-8.833 -6.385,-12.865 -13.345,-12.865 -7.008,0 -13.298,4.032 -13.298,12.865"
             style="fill:#173a58;fill-opacity:1;fill-rule:nonzero;stroke:none"
             id="path38"
             inkscape:connector-curvature="0" /></g><g
           id="g40"
           transform="translate(213.8972,76.1823)"><path
             d="m 0,0 v 0.144 h 14.258 v -0.192 c 0,-0.144 -1.824,-3.648 -0.481,-6.672 l 4.081,-9.121 3.745,9.072 c 1.248,3.025 -0.624,6.577 -0.624,6.721 v 0.192 h 7.44 v -0.192 c 0,-0.192 -2.64,-4.128 -4.033,-7.489 l -7.104,-16.801 h -5.52 L 4.177,-7.488 C 2.688,-4.128 0,-0.192 0,0"
             style="fill:#173a58;fill-opacity:1;fill-rule:nonzero;stroke:none"
             id="path42"
             inkscape:connector-curvature="0" /></g><g
           id="g44"
           transform="translate(255.8503,56.2126)"><path
             d="M 0,0 C 0.672,0 1.248,0.192 1.824,0.624 1.729,1.152 1.681,1.68 1.681,2.304 V 8.353 C 1.2,8.497 0.72,8.545 0.24,8.545 -2.544,8.545 -3.601,6.817 -3.601,4.513 -3.601,1.968 -2.353,0 0,0 m -12.961,3.072 c 0,4.897 4.32,7.969 9.121,7.969 1.392,0 3.648,-0.288 5.521,-1.056 v 2.64 c 0,3.265 0,5.377 -1.057,5.377 -2.688,0 -11.232,-6.817 -11.232,-6.817 h -0.241 V 18.77 C -6,19.874 -1.44,20.402 1.2,20.402 c 7.153,0 9.505,-3.84 9.505,-8.497 V 3.648 c 0,-3.072 0.528,-4.608 3.025,-3.312 l 0.143,-0.144 c -0.191,-2.784 -2.256,-5.04 -5.904,-5.04 -2.977,0 -5.04,1.488 -5.857,4.176 -1.007,-1.872 -3.36,-4.176 -7.297,-4.176 -5.184,0 -7.776,4.176 -7.776,7.92"
             style="fill:#173a58;fill-opacity:1;fill-rule:nonzero;stroke:none"
             id="path46"
             inkscape:connector-curvature="0" /></g><g
           id="g48"
           transform="translate(97.5833,103.6852)"><path
             d="m 0,0 h -12.001 v 0.192 c 0,0.192 1.488,4.369 1.488,8.016 v 8.065 c 0,3.649 -1.488,7.825 -1.488,8.017 v 0.192 h 10.513 v -4.08 c 1.248,2.16 3.793,4.368 7.68,4.368 4.465,0 7.969,-2.88 7.969,-7.969 V 8.208 c 0,-3.647 1.488,-7.824 1.488,-8.016 V 0 H 3.648 v 0.192 c 0,0.192 1.489,4.369 1.489,8.016 v 7.297 c 0,2.832 -1.681,3.745 -3.456,3.793 -1.105,0.048 -2.209,-0.288 -3.169,-0.72 V 8.208 C -1.488,4.561 0,0.384 0,0.192 Z"
             style="fill:#173a58;fill-opacity:1;fill-rule:nonzero;stroke:none"
             id="path50"
             inkscape:connector-curvature="0" /></g><g
           id="g52"
           transform="translate(117.8432,135.5602)"><path
             d="M 0,0 C 0,2.976 2.448,5.328 5.425,5.328 8.4,5.328 10.849,2.976 10.849,0 10.849,-2.977 8.353,-5.329 5.425,-5.329 2.544,-5.329 0,-2.977 0,0 M 11.857,-31.875 H -0.144 v 0.192 c 0,0.192 1.488,4.369 1.488,8.016 v 8.065 c 0,3.649 -1.488,7.825 -1.488,8.017 v 0.192 h 10.513 v -16.274 c 0,-3.647 1.488,-7.824 1.488,-8.016 z"
             style="fill:#173a58;fill-opacity:1;fill-rule:nonzero;stroke:none"
             id="path54"
             inkscape:connector-curvature="0" /></g><g
           id="g56"
           transform="translate(169.7797,117.4625)"><path
             d="m 0,0 6.096,1.92 c 0,2.88 -0.24,6.865 -3.073,6.865 -2.784,0 -3.168,-3.937 -3.12,-6.913 C -0.097,1.248 -0.049,0.624 0,0 m -9.89,-1.632 c 0,8.065 5.329,12.625 13.058,12.625 9.121,0 11.761,-6.673 11.761,-12.241 H 0.144 c 0.576,-4.321 2.448,-7.297 6.96,-7.297 2.352,0 4.321,0.576 7.057,2.112 l 0.192,-0.144 c -0.96,-3.072 -4.752,-7.777 -11.425,-7.777 -5.952,0 -12.818,3.745 -12.818,12.722"
             style="fill:#173a58;fill-opacity:1;fill-rule:nonzero;stroke:none"
             id="path58"
             inkscape:connector-curvature="0" /></g><g
           id="g60"
           transform="translate(199.8266,103.6852)"><path
             d="m 0,0 h -12.001 v 0.192 c 0,0.192 1.488,4.369 1.488,8.016 v 8.065 c 0,3.649 -1.488,7.825 -1.488,8.017 v 0.192 H -1.488 V 19.25 c 1.728,3.888 4.657,7.2 10.417,5.328 L 7.489,15.073 H 7.249 C 5.28,17.377 2.112,19.778 -1.488,18.001 V 8.208 C -1.488,4.561 0,0.384 0,0.192 Z"
             style="fill:#173a58;fill-opacity:1;fill-rule:nonzero;stroke:none"
             id="path62"
             inkscape:connector-curvature="0" /></g><g
           id="g64"
           transform="translate(223.6047,125.9113)"><path
             d="m 0,0 h -1.632 c -4.368,0 -9.361,-6.673 -9.6,-6.673 h -0.241 V 2.256 H 12.193 L 0,-19.97 h 1.296 c 4.369,0 9.361,6.72 9.601,6.72 h 0.241 v -8.976 h -23.33 z"
             style="fill:#173a58;fill-opacity:1;fill-rule:nonzero;stroke:none"
             id="path66"
             inkscape:connector-curvature="0" /></g><g
           id="g68"
           transform="translate(239.2512,135.5602)"><path
             d="M 0,0 C 0,2.976 2.448,5.328 5.425,5.328 8.4,5.328 10.849,2.976 10.849,0 10.849,-2.977 8.353,-5.329 5.425,-5.329 2.544,-5.329 0,-2.977 0,0 M 11.857,-31.875 H -0.144 v 0.192 c 0,0.192 1.488,4.369 1.488,8.016 v 8.065 c 0,3.649 -1.488,7.825 -1.488,8.017 v 0.192 h 10.513 v -16.274 c 0,-3.647 1.488,-7.824 1.488,-8.016 z"
             style="fill:#173a58;fill-opacity:1;fill-rule:nonzero;stroke:none"
             id="path70"
             inkscape:connector-curvature="0" /></g><g
           id="g72"
           transform="translate(256.7238,111.5577)"><path
             d="m 0,0 v 14.209 h -3.504 v 2.4 C 1.92,19.442 5.664,22.37 8.977,25.73 v -9.121 h 6.432 v -2.4 H 8.977 L 9.024,0.816 c 0,-2.448 1.345,-3.36 3.073,-3.36 0.96,0 2.016,0.288 3.072,0.672 C 14.113,-5.088 11.857,-8.449 7.104,-8.449 2.736,-8.449 0,-5.568 0,0"
             style="fill:#173a58;fill-opacity:1;fill-rule:nonzero;stroke:none"
             id="path74"
             inkscape:connector-curvature="0" /></g><g
           id="g76"
           transform="translate(287.8762,108.0533)"><path
             d="M 0,0 C 0.672,0 1.248,0.192 1.824,0.624 1.729,1.152 1.681,1.68 1.681,2.304 V 8.353 C 1.2,8.497 0.72,8.545 0.24,8.545 -2.544,8.545 -3.601,6.817 -3.601,4.513 -3.601,1.968 -2.353,0 0,0 m -12.961,3.072 c 0,4.897 4.32,7.969 9.121,7.969 1.392,0 3.648,-0.288 5.521,-1.056 v 2.64 c 0,3.265 0,5.377 -1.057,5.377 -2.688,0 -11.232,-6.817 -11.232,-6.817 h -0.241 V 18.77 C -6,19.874 -1.44,20.402 1.2,20.402 c 7.153,0 9.505,-3.84 9.505,-8.497 V 3.648 c 0,-3.072 0.528,-4.608 3.024,-3.312 l 0.144,-0.144 c -0.191,-2.784 -2.256,-5.04 -5.904,-5.04 -2.977,0 -5.04,1.488 -5.857,4.176 -1.008,-1.872 -3.36,-4.176 -7.297,-4.176 -5.184,0 -7.776,4.176 -7.776,7.92"
             style="fill:#173a58;fill-opacity:1;fill-rule:nonzero;stroke:none"
             id="path78"
             inkscape:connector-curvature="0" /></g><g
           id="g80"
           transform="translate(131.7631,128.0231)"><path
             d="m 0,0 v 0.144 h 14.258 v -0.192 c 0,-0.144 -1.824,-3.648 -0.481,-6.672 l 4.081,-9.121 3.745,9.072 c 1.248,3.025 -0.624,6.577 -0.624,6.721 v 0.192 h 7.44 v -0.192 c 0,-0.192 -2.64,-4.128 -4.033,-7.489 l -7.104,-16.801 h -5.52 L 4.177,-7.488 C 2.688,-4.128 0,-0.192 0,0"
             style="fill:#173a58;fill-opacity:1;fill-rule:nonzero;stroke:none"
             id="path82"
             inkscape:connector-curvature="0" /></g><g
           id="g84"
           transform="translate(53.3327,118.2789)"><path
             d="m 0,0 v 11.761 c 0,3.648 -1.488,7.825 -1.488,8.016 v 0.193 h 12.577 v -0.193 c 0,-0.191 -1.487,-4.368 -1.487,-8.016 V -1.152 c 0,-7.057 2.878,-10.081 7.488,-10.081 4.607,0 7.464,3.072 7.464,9.745 v 9.169 c 0,5.472 -2.975,11.713 -2.975,12.001 v 0.288 h 9.154 v -0.288 c 0,-0.288 -2.976,-6.529 -2.976,-12.001 v -9.169 c 0,-9.793 -5.963,-13.682 -13.26,-13.682 C 7.681,-15.17 0,-11.665 0,0"
             style="fill:#173a58;fill-opacity:1;fill-rule:nonzero;stroke:none"
             id="path86"
             inkscape:connector-curvature="0" /></g><g
           id="g88"
           transform="translate(224.0839,192.655)"><path
             d="m 0,0 c -0.951,0.534 -1.977,0.803 -2.999,0.843 1.448,3.787 1.492,7.85 0.296,11.532 -3.766,-0.897 -7.212,-3.051 -9.689,-6.26 -0.567,0.85 -1.332,1.586 -2.283,2.12 -3.236,1.816 -7.344,0.645 -9.175,-2.617 -1.83,-3.262 -0.69,-7.378 2.547,-9.195 1.673,-0.939 3.577,-1.071 5.281,-0.537 -2.989,-3.224 -7.25,-5.25 -11.994,-5.25 -7.453,0 -13.716,4.988 -15.697,11.801 1.222,-1.283 2.935,-2.088 4.84,-2.088 3.711,0 6.72,3.032 6.72,6.772 0,3.74 -3.009,6.772 -6.72,6.772 -1.091,0 -2.118,-0.267 -3.029,-0.732 -0.589,4.011 -2.54,7.576 -5.385,10.202 -2.845,-2.626 -4.796,-6.191 -5.386,-10.202 -0.91,0.465 -1.937,0.732 -3.028,0.732 -3.711,0 -6.72,-3.032 -6.72,-6.772 0,-3.74 3.009,-6.772 6.72,-6.772 1.905,0 3.617,0.805 4.84,2.088 -1.981,-6.813 -8.244,-11.801 -15.697,-11.801 -4.744,0 -9.005,2.026 -11.994,5.25 1.704,-0.534 3.607,-0.402 5.281,0.537 3.237,1.817 4.377,5.933 2.547,9.195 -1.831,3.262 -5.939,4.433 -9.175,2.617 -0.952,-0.534 -1.716,-1.27 -2.283,-2.12 -2.477,3.209 -5.923,5.363 -9.689,6.26 -1.196,-3.682 -1.152,-7.745 0.296,-11.532 -1.022,-0.04 -2.048,-0.309 -2.999,-0.843 -3.237,-1.816 -4.377,-5.933 -2.547,-9.195 1.831,-3.261 5.938,-4.433 9.175,-2.617 1.182,0.663 2.074,1.637 2.652,2.761 1.869,-3.536 2.929,-7.565 2.929,-11.843 0,-1.58 -0.145,-3.127 -0.421,-4.628 -0.051,-0.28 0.129,-0.545 0.411,-0.587 10.074,-1.5 22.13,-2.373 35.088,-2.373 12.958,0 25.013,0.873 35.087,2.373 0.282,0.042 0.463,0.307 0.411,0.587 -0.276,1.501 -0.42,3.048 -0.42,4.628 0,4.278 1.06,8.307 2.929,11.843 0.578,-1.124 1.47,-2.098 2.652,-2.761 3.236,-1.816 7.344,-0.644 9.175,2.617 C 4.377,-5.933 3.237,-1.816 0,0"
             style="fill:#c61745;fill-opacity:1;fill-rule:nonzero;stroke:none"
             id="path90"
             inkscape:connector-curvature="0" /></g></g></g></g></svg>