<?xml version="1.0" encoding="UTF-8" standalone="no"?>
<svg
   xmlns:dc="http://purl.org/dc/elements/1.1/"
   xmlns:cc="http://creativecommons.org/ns#"
   xmlns:rdf="http://www.w3.org/1999/02/22-rdf-syntax-ns#"
   xmlns:svg="http://www.w3.org/2000/svg"
   xmlns="http://www.w3.org/2000/svg"
   xmlns:sodipodi="http://sodipodi.sourceforge.net/DTD/sodipodi-0.dtd"
   xmlns:inkscape="http://www.inkscape.org/namespaces/inkscape"
   width="98.443497"
   height="56.692875"
   viewBox="0 0 98.443497 56.692875"
   version="1.1"
   xml:space="preserve"
   style="clip-rule:evenodd;fill-rule:evenodd;stroke-linejoin:round;stroke-miterlimit:2"
   id="svg64"
   sodipodi:docname="lindat.svg"
   inkscape:version="0.92.5 (2060ec1f9f, 2020-04-08)"><metadata
   id="metadata70"><rdf:RDF><cc:Work
       rdf:about=""><dc:format>image/svg+xml</dc:format><dc:type
         rdf:resource="http://purl.org/dc/dcmitype/StillImage" /><dc:title></dc:title></cc:Work></rdf:RDF></metadata><defs
   id="defs68" /><sodipodi:namedview
   pagecolor="#ffffff"
   bordercolor="#666666"
   borderopacity="1"
   objecttolerance="10"
   gridtolerance="10"
   guidetolerance="10"
   inkscape:pageopacity="0"
   inkscape:pageshadow="2"
   inkscape:window-width="1848"
   inkscape:window-height="1016"
   id="namedview66"
   showgrid="false"
   fit-margin-top="0"
   fit-margin-left="0"
   fit-margin-right="0"
   fit-margin-bottom="0"
   inkscape:zoom="0.19178794"
   inkscape:cx="418.76153"
   inkscape:cy="240.63445"
   inkscape:window-x="72"
   inkscape:window-y="27"
   inkscape:window-maximized="1"
   inkscape:current-layer="svg64" />
    <g
   id="original"
   transform="matrix(0.05408419,0,0,0.05119088,-128.39966,0)">
        <rect
   x="2374.0701"
   y="0"
   width="1820.1899"
   height="1107.48"
   style="fill:none"
   id="rect2" />
        <g
   transform="matrix(6.7558,0,0,7.13764,2462.51,-6462.88)"
   id="g19">
            <path
   id="path3161"
   d="m 239.477,982.168 c 0,38.082 -30.865,68.942 -68.941,68.942 -38.076,0 -68.944,-30.86 -68.945,-68.938 v -0.003 c 0,-38.076 30.865,-68.943 68.941,-68.944 38.076,-10e-4 68.943,30.865 68.945,68.941 z"
   style="fill:#7479b8;fill-rule:nonzero"
   inkscape:connector-curvature="0" />
            <g
   id="g17">
                <path
   d="m 10.062,963.224 v 33.806 h 19.073 c 1.521,0 2.688,0.37 3.501,1.108 0.812,0.74 1.22,1.669 1.22,2.792 0,1.14 -0.401,2.06 -1.204,2.77 -0.803,0.71 -1.975,1.06 -3.517,1.06 H 6.419 c -2.049,0 -3.522,-0.45 -4.42,-1.36 -0.898,-0.91 -1.347,-2.38 -1.347,-4.406 v -35.77 c 0,-1.9 0.428,-3.326 1.283,-4.276 0.855,-0.951 1.98,-1.426 3.375,-1.426 1.415,0 2.561,0.47 3.438,1.409 0.876,0.941 1.314,2.372 1.314,4.293 z"
   style="fill-rule:nonzero"
   id="path5"
   inkscape:connector-curvature="0" />
                <path
   d="m 40.415,999.818 v -36.594 c 0,-1.9 0.433,-3.326 1.299,-4.276 0.866,-0.951 1.985,-1.426 3.358,-1.426 1.415,0 2.561,0.47 3.438,1.409 0.876,0.94 1.314,2.371 1.314,4.293 v 36.594 c 0,1.922 -0.438,3.362 -1.314,4.312 -0.877,0.95 -2.023,1.42 -3.438,1.42 -1.352,0 -2.466,-0.48 -3.343,-1.44 -0.877,-0.96 -1.314,-2.39 -1.314,-4.292 z"
   style="fill-rule:nonzero"
   id="path7"
   inkscape:connector-curvature="0" />
                <path
   d="m 72.604,963.161 18.09,27.374 v -27.627 c 0,-1.795 0.385,-3.142 1.157,-4.04 0.771,-0.897 1.811,-1.346 3.121,-1.346 1.352,0 2.418,0.448 3.2,1.346 0.781,0.898 1.172,2.245 1.172,4.04 v 36.53 c 0,4.072 -1.69,6.112 -5.069,6.112 -0.845,0 -1.605,-0.12 -2.281,-0.36 -0.676,-0.24 -1.31,-0.63 -1.901,-1.16 -0.592,-0.53 -1.141,-1.14 -1.648,-1.85 -0.507,-0.71 -1.014,-1.43 -1.521,-2.17 L 69.277,972.95 v 27.22 c 0,1.77 -0.412,3.11 -1.236,4.02 -0.824,0.91 -1.88,1.36 -3.168,1.36 -1.331,0 -2.397,-0.46 -3.2,-1.38 -0.803,-0.92 -1.204,-2.25 -1.204,-4 v -35.838 c 0,-1.521 0.169,-2.714 0.507,-3.58 0.401,-0.95 1.066,-1.727 1.996,-2.329 0.929,-0.602 1.933,-0.902 3.01,-0.902 0.845,0 1.568,0.138 2.17,0.411 0.602,0.275 1.13,0.645 1.584,1.109 0.454,0.464 0.919,1.066 1.394,1.806 0.476,0.741 0.967,1.512 1.474,2.314 z"
   style="fill-rule:nonzero"
   id="path9"
   inkscape:connector-curvature="0" />
                <path
   d="m 115.471,958.314 h 12.262 c 3.188,0 5.924,0.296 8.205,0.887 2.281,0.592 4.352,1.7 6.21,3.327 4.837,4.14 7.255,10.434 7.255,18.883 0,2.788 -0.242,5.333 -0.729,7.635 -0.486,2.303 -1.236,4.378 -2.25,6.226 -1.014,1.849 -2.312,3.501 -3.896,4.958 -1.246,1.12 -2.609,2.02 -4.087,2.69 -1.479,0.68 -3.068,1.15 -4.769,1.43 -1.7,0.27 -3.617,0.41 -5.75,0.41 h -12.261 c -1.711,0 -3,-0.26 -3.865,-0.77 -0.866,-0.52 -1.431,-1.25 -1.695,-2.19 -0.265,-0.94 -0.396,-2.161 -0.396,-3.661 V 964.08 c 0,-2.027 0.454,-3.495 1.362,-4.403 0.908,-0.909 2.376,-1.363 4.404,-1.363 z m 3.643,7.445 v 31.524 h 7.128 c 1.563,0 2.789,-0.042 3.676,-0.126 0.887,-0.084 1.806,-0.296 2.756,-0.634 0.951,-0.338 1.774,-0.813 2.472,-1.426 3.147,-2.661 4.721,-7.244 4.721,-13.75 0,-4.583 -0.692,-8.016 -2.075,-10.297 -1.384,-2.281 -3.09,-3.733 -5.117,-4.356 -2.027,-0.623 -4.478,-0.935 -7.35,-0.935 z"
   style="fill-rule:nonzero"
   id="path11"
   inkscape:connector-curvature="0" />
                <path
   d="m 184.919,999.501 -2.218,-5.829 h -18.883 l -2.218,5.956 c -0.866,2.322 -1.605,3.892 -2.218,4.702 -0.613,0.81 -1.616,1.22 -3.01,1.22 -1.184,0 -2.229,-0.43 -3.137,-1.3 -0.908,-0.86 -1.362,-1.84 -1.362,-2.94 0,-0.64 0.105,-1.29 0.317,-1.967 0.21,-0.676 0.559,-1.615 1.045,-2.819 l 11.881,-30.162 c 0.338,-0.865 0.744,-1.905 1.22,-3.12 0.476,-1.215 0.982,-2.223 1.521,-3.026 0.539,-0.802 1.246,-1.452 2.123,-1.948 0.876,-0.496 1.959,-0.744 3.248,-0.744 1.309,0 2.402,0.248 3.278,0.744 0.876,0.496 1.585,1.136 2.123,1.917 0.538,0.781 0.993,1.621 1.362,2.519 0.369,0.898 0.84,2.097 1.41,3.596 l 12.135,29.972 c 0.949,2.281 1.425,3.938 1.425,4.978 0,1.07 -0.448,2.06 -1.347,2.96 -0.897,0.9 -1.98,1.35 -3.247,1.35 -0.739,0 -1.373,-0.14 -1.901,-0.4 -0.527,-0.27 -0.971,-0.62 -1.33,-1.08 -0.359,-0.45 -0.744,-1.15 -1.156,-2.09 -0.412,-0.94 -0.765,-1.77 -1.061,-2.489 z m -18.63,-12.895 h 13.877 l -7.002,-19.168 z"
   style="fill-rule:nonzero"
   id="path13"
   inkscape:connector-curvature="0" />
                <path
   d="m 226.328,966.076 h -10.266 v 33.742 c 0,1.942 -0.434,3.382 -1.299,4.322 -0.867,0.94 -1.986,1.41 -3.358,1.41 -1.394,0 -2.53,-0.47 -3.405,-1.42 -0.877,-0.95 -1.315,-2.39 -1.315,-4.313 V 966.075 H 196.42 c -1.605,0 -2.799,-0.354 -3.58,-1.062 -0.782,-0.707 -1.173,-1.642 -1.173,-2.804 0,-1.204 0.406,-2.154 1.22,-2.852 0.812,-0.696 1.99,-1.045 3.533,-1.045 h 29.908 c 1.625,0 2.835,0.359 3.627,1.077 0.793,0.718 1.188,1.658 1.188,2.819 0,1.162 -0.401,2.097 -1.204,2.804 -0.802,0.711 -2.006,1.064 -3.611,1.064 z"
   style="fill-rule:nonzero"
   id="path15"
   inkscape:connector-curvature="0" />
            </g>
        </g>
        <g
   transform="matrix(2.08051,0,0,2.1981,2184.61,-524.395)"
   id="g61">
            <g
   transform="matrix(50,0,0,50,529.393,619.684)"
   id="g23">
                <path
   d="m 0.688,-0.226 c 0,0.023 -0.006,0.047 -0.017,0.074 C 0.66,-0.126 0.642,-0.1 0.618,-0.074 0.594,-0.048 0.563,-0.028 0.526,-0.012 0.488,0.004 0.445,0.012 0.395,0.012 0.357,0.012 0.323,0.009 0.292,0.001 0.261,-0.006 0.233,-0.017 0.208,-0.032 0.183,-0.047 0.159,-0.067 0.138,-0.092 0.119,-0.114 0.103,-0.139 0.09,-0.167 0.076,-0.195 0.066,-0.225 0.06,-0.256 0.053,-0.288 0.05,-0.321 0.05,-0.357 c 0,-0.058 0.008,-0.109 0.025,-0.155 0.017,-0.045 0.041,-0.084 0.072,-0.117 0.031,-0.032 0.068,-0.057 0.11,-0.074 0.042,-0.017 0.087,-0.025 0.134,-0.025 0.058,0 0.11,0.012 0.155,0.035 0.045,0.023 0.08,0.051 0.104,0.085 0.024,0.034 0.036,0.066 0.036,0.097 0,0.016 -0.006,0.031 -0.018,0.044 -0.011,0.012 -0.025,0.019 -0.042,0.019 -0.019,0 -0.032,-0.005 -0.042,-0.013 C 0.575,-0.47 0.565,-0.485 0.553,-0.507 0.534,-0.542 0.512,-0.569 0.487,-0.586 0.461,-0.604 0.43,-0.613 0.392,-0.613 c -0.059,0 -0.107,0.023 -0.142,0.068 -0.036,0.045 -0.053,0.11 -0.053,0.193 0,0.056 0.008,0.102 0.023,0.139 0.016,0.037 0.038,0.064 0.067,0.083 0.028,0.018 0.062,0.027 0.1,0.027 0.042,0 0.077,-0.01 0.106,-0.031 0.029,-0.021 0.05,-0.051 0.065,-0.091 0.006,-0.019 0.014,-0.034 0.023,-0.046 0.009,-0.012 0.024,-0.018 0.044,-0.018 0.017,0 0.032,0.006 0.044,0.018 0.013,0.012 0.019,0.027 0.019,0.045 z"
   style="fill-rule:nonzero"
   id="path21"
   inkscape:connector-curvature="0" />
            </g>
            <g
   transform="matrix(50,0,0,50,566.405,619.684)"
   id="g27">
                <path
   d="m 0.22,-0.64 v 0.521 h 0.294 c 0.024,0 0.042,0.006 0.054,0.017 0.013,0.011 0.019,0.026 0.019,0.043 0,0.017 -0.006,0.032 -0.019,0.043 C 0.556,-0.005 0.538,0 0.514,0 H 0.164 C 0.132,0 0.11,-0.007 0.096,-0.021 0.082,-0.035 0.075,-0.058 0.075,-0.089 V -0.64 c 0,-0.029 0.007,-0.051 0.02,-0.066 0.013,-0.015 0.03,-0.022 0.052,-0.022 0.022,0 0.039,0.007 0.053,0.022 0.013,0.014 0.02,0.036 0.02,0.066 z"
   style="fill-rule:nonzero"
   id="path25"
   inkscape:connector-curvature="0" />
            </g>
            <g
   transform="matrix(50,0,0,50,595.946,619.684)"
   id="g31">
                <path
   d="M 0.536,-0.081 0.502,-0.171 H 0.211 L 0.177,-0.079 C 0.163,-0.043 0.152,-0.019 0.143,-0.007 0.133,0.006 0.118,0.012 0.096,0.012 0.078,0.012 0.062,0.006 0.048,-0.008 0.034,-0.021 0.027,-0.036 0.027,-0.053 c 0,-0.01 0.001,-0.02 0.005,-0.03 0.003,-0.011 0.008,-0.025 0.016,-0.044 l 0.183,-0.465 c 0.005,-0.013 0.011,-0.029 0.019,-0.048 0.007,-0.019 0.015,-0.034 0.023,-0.047 0.008,-0.012 0.019,-0.022 0.033,-0.03 0.013,-0.007 0.03,-0.011 0.05,-0.011 0.02,0 0.037,0.004 0.05,0.011 0.014,0.008 0.025,0.018 0.033,0.03 0.009,0.012 0.016,0.025 0.021,0.039 0.006,0.014 0.013,0.032 0.022,0.055 l 0.187,0.462 c 0.015,0.035 0.022,0.061 0.022,0.077 0,0.016 -0.007,0.032 -0.021,0.045 C 0.656,0.005 0.64,0.012 0.62,0.012 0.609,0.012 0.599,0.01 0.591,0.006 0.583,0.002 0.576,-0.003 0.57,-0.01 0.565,-0.017 0.559,-0.028 0.552,-0.043 0.546,-0.057 0.541,-0.07 0.536,-0.081 Z M 0.249,-0.28 H 0.463 L 0.355,-0.575 Z"
   style="fill-rule:nonzero"
   id="path29"
   inkscape:connector-curvature="0" />
            </g>
            <g
   transform="matrix(50,0,0,50,631.908,619.684)"
   id="g35">
                <path
   d="M 0.273,-0.306 H 0.222 v 0.23 c 0,0.03 -0.007,0.052 -0.02,0.067 C 0.189,0.005 0.171,0.012 0.15,0.012 0.127,0.012 0.109,0.005 0.096,-0.01 0.083,-0.025 0.077,-0.047 0.077,-0.076 v -0.551 c 0,-0.031 0.007,-0.054 0.021,-0.068 0.014,-0.014 0.037,-0.021 0.068,-0.021 h 0.236 c 0.032,0 0.06,0.002 0.083,0.004 0.023,0.003 0.044,0.009 0.063,0.017 0.022,0.01 0.042,0.023 0.059,0.041 0.018,0.017 0.031,0.038 0.04,0.061 0.009,0.023 0.013,0.048 0.013,0.074 0,0.053 -0.015,0.096 -0.045,0.128 -0.03,0.032 -0.076,0.054 -0.137,0.068 0.026,0.013 0.05,0.034 0.074,0.06 0.023,0.027 0.044,0.055 0.063,0.086 0.018,0.03 0.032,0.057 0.042,0.081 0.011,0.024 0.016,0.041 0.016,0.05 0,0.01 -0.003,0.019 -0.009,0.028 C 0.658,-0.009 0.65,-0.001 0.639,0.004 0.629,0.01 0.617,0.012 0.603,0.012 0.587,0.012 0.573,0.008 0.562,0.001 0.551,-0.007 0.541,-0.017 0.533,-0.028 0.525,-0.04 0.515,-0.057 0.501,-0.08 L 0.443,-0.177 C 0.422,-0.212 0.403,-0.239 0.387,-0.258 0.371,-0.276 0.354,-0.289 0.337,-0.296 0.32,-0.303 0.299,-0.306 0.273,-0.306 Z M 0.356,-0.607 H 0.222 v 0.197 h 0.13 c 0.035,0 0.064,-0.003 0.088,-0.009 0.024,-0.006 0.042,-0.016 0.054,-0.031 0.013,-0.014 0.019,-0.034 0.019,-0.06 0,-0.02 -0.005,-0.037 -0.015,-0.052 -0.01,-0.015 -0.024,-0.027 -0.042,-0.034 -0.017,-0.007 -0.05,-0.011 -0.1,-0.011 z"
   style="fill-rule:nonzero"
   id="path33"
   inkscape:connector-curvature="0" />
            </g>
            <g
   transform="matrix(50,0,0,50,667.87,619.684)"
   id="g39">
                <path
   d="M 0.084,-0.076 V -0.64 c 0,-0.029 0.007,-0.051 0.02,-0.066 0.013,-0.015 0.031,-0.022 0.052,-0.022 0.022,0 0.039,0.007 0.053,0.022 0.013,0.014 0.02,0.036 0.02,0.066 v 0.564 c 0,0.029 -0.007,0.052 -0.02,0.066 C 0.195,0.005 0.178,0.012 0.156,0.012 0.135,0.012 0.118,0.005 0.104,-0.01 0.091,-0.025 0.084,-0.047 0.084,-0.076 Z"
   style="fill-rule:nonzero"
   id="path37"
   inkscape:connector-curvature="0" />
            </g>
            <g
   transform="matrix(50,0,0,50,683.519,619.684)"
   id="g43">
                <path
   d="M 0.536,-0.081 0.502,-0.171 H 0.211 L 0.177,-0.079 C 0.163,-0.043 0.152,-0.019 0.143,-0.007 0.133,0.006 0.118,0.012 0.096,0.012 0.078,0.012 0.062,0.006 0.048,-0.008 0.034,-0.021 0.027,-0.036 0.027,-0.053 c 0,-0.01 0.001,-0.02 0.005,-0.03 0.003,-0.011 0.008,-0.025 0.016,-0.044 l 0.183,-0.465 c 0.005,-0.013 0.011,-0.029 0.019,-0.048 0.007,-0.019 0.015,-0.034 0.023,-0.047 0.008,-0.012 0.019,-0.022 0.033,-0.03 0.013,-0.007 0.03,-0.011 0.05,-0.011 0.02,0 0.037,0.004 0.05,0.011 0.014,0.008 0.025,0.018 0.033,0.03 0.009,0.012 0.016,0.025 0.021,0.039 0.006,0.014 0.013,0.032 0.022,0.055 l 0.187,0.462 c 0.015,0.035 0.022,0.061 0.022,0.077 0,0.016 -0.007,0.032 -0.021,0.045 C 0.656,0.005 0.64,0.012 0.62,0.012 0.609,0.012 0.599,0.01 0.591,0.006 0.583,0.002 0.576,-0.003 0.57,-0.01 0.565,-0.017 0.559,-0.028 0.552,-0.043 0.546,-0.057 0.541,-0.07 0.536,-0.081 Z M 0.249,-0.28 H 0.463 L 0.355,-0.575 Z"
   style="fill-rule:nonzero"
   id="path41"
   inkscape:connector-curvature="0" />
            </g>
            <g
   transform="matrix(50,0,0,50,719.481,619.684)"
   id="g47">
                <path
   d="m 0.224,-0.64 v 0.205 H 0.537 V -0.64 c 0,-0.029 0.007,-0.051 0.02,-0.066 0.013,-0.015 0.03,-0.022 0.052,-0.022 0.022,0 0.039,0.007 0.053,0.022 0.013,0.014 0.02,0.036 0.02,0.066 v 0.564 c 0,0.029 -0.007,0.052 -0.02,0.066 C 0.648,0.005 0.63,0.012 0.609,0.012 0.587,0.012 0.57,0.005 0.557,-0.01 0.544,-0.025 0.537,-0.047 0.537,-0.076 V -0.317 H 0.224 v 0.241 c 0,0.029 -0.007,0.052 -0.02,0.066 C 0.19,0.005 0.172,0.012 0.151,0.012 0.129,0.012 0.112,0.005 0.099,-0.01 0.086,-0.025 0.079,-0.047 0.079,-0.076 V -0.64 c 0,-0.029 0.007,-0.051 0.019,-0.066 0.013,-0.015 0.031,-0.022 0.053,-0.022 0.022,0 0.039,0.007 0.053,0.022 0.013,0.014 0.02,0.036 0.02,0.066 z"
   style="fill-rule:nonzero"
   id="path45"
   inkscape:connector-curvature="0" />
            </g>
            <g
   transform="matrix(50,0,0,50,757.469,619.684)"
   id="g51">
                <path
   d="M 0.244,-0.201 H 0.09 c -0.024,0 -0.041,-0.006 -0.054,-0.017 -0.012,-0.01 -0.018,-0.025 -0.018,-0.042 0,-0.017 0.006,-0.032 0.018,-0.042 0.012,-0.011 0.03,-0.017 0.054,-0.017 h 0.154 c 0.024,0 0.042,0.006 0.054,0.017 0.012,0.01 0.018,0.025 0.018,0.042 0,0.017 -0.006,0.032 -0.018,0.042 -0.011,0.011 -0.029,0.017 -0.054,0.017 z"
   style="fill-rule:nonzero"
   id="path49"
   inkscape:connector-curvature="0" />
            </g>
            <g
   transform="matrix(50,0,0,50,774.12,619.684)"
   id="g55">
                <path
   d="m 0.688,-0.226 c 0,0.023 -0.006,0.047 -0.017,0.074 C 0.66,-0.126 0.642,-0.1 0.618,-0.074 0.594,-0.048 0.563,-0.028 0.526,-0.012 0.488,0.004 0.445,0.012 0.395,0.012 0.357,0.012 0.323,0.009 0.292,0.001 0.261,-0.006 0.233,-0.017 0.208,-0.032 0.183,-0.047 0.159,-0.067 0.138,-0.092 0.119,-0.114 0.103,-0.139 0.09,-0.167 0.076,-0.195 0.066,-0.225 0.06,-0.256 0.053,-0.288 0.05,-0.321 0.05,-0.357 c 0,-0.058 0.008,-0.109 0.025,-0.155 0.017,-0.045 0.041,-0.084 0.072,-0.117 0.031,-0.032 0.068,-0.057 0.11,-0.074 0.042,-0.017 0.087,-0.025 0.134,-0.025 0.058,0 0.11,0.012 0.155,0.035 0.045,0.023 0.08,0.051 0.104,0.085 0.024,0.034 0.036,0.066 0.036,0.097 0,0.016 -0.006,0.031 -0.018,0.044 -0.011,0.012 -0.025,0.019 -0.042,0.019 -0.019,0 -0.032,-0.005 -0.042,-0.013 C 0.575,-0.47 0.565,-0.485 0.553,-0.507 0.534,-0.542 0.512,-0.569 0.487,-0.586 0.461,-0.604 0.43,-0.613 0.392,-0.613 c -0.059,0 -0.107,0.023 -0.142,0.068 -0.036,0.045 -0.053,0.11 -0.053,0.193 0,0.056 0.008,0.102 0.023,0.139 0.016,0.037 0.038,0.064 0.067,0.083 0.028,0.018 0.062,0.027 0.1,0.027 0.042,0 0.077,-0.01 0.106,-0.031 0.029,-0.021 0.05,-0.051 0.065,-0.091 0.006,-0.019 0.014,-0.034 0.023,-0.046 0.009,-0.012 0.024,-0.018 0.044,-0.018 0.017,0 0.032,0.006 0.044,0.018 0.013,0.012 0.019,0.027 0.019,0.045 z"
   style="fill-rule:nonzero"
   id="path53"
   inkscape:connector-curvature="0" />
            </g>
            <g
   transform="matrix(50,0,0,50,811.132,619.684)"
   id="g59">
                <path
   d="m 0.059,-0.167 0.368,-0.44 H 0.111 c -0.022,0 -0.039,-0.005 -0.05,-0.015 C 0.05,-0.631 0.044,-0.644 0.044,-0.66 c 0,-0.017 0.006,-0.03 0.017,-0.04 0.011,-0.011 0.028,-0.016 0.05,-0.016 h 0.407 c 0.053,0 0.079,0.025 0.079,0.074 0,0.023 -0.004,0.042 -0.013,0.056 -0.009,0.014 -0.027,0.037 -0.053,0.068 l -0.344,0.409 h 0.379 c 0.022,0 0.039,0.005 0.05,0.014 0.011,0.009 0.017,0.022 0.017,0.039 0,0.017 -0.006,0.031 -0.017,0.041 C 0.605,-0.005 0.588,0 0.566,0 H 0.101 C 0.069,0 0.046,-0.007 0.03,-0.021 0.014,-0.035 0.006,-0.054 0.006,-0.078 c 0,-0.008 0.001,-0.016 0.004,-0.023 0.002,-0.006 0.006,-0.013 0.01,-0.019 0.005,-0.006 0.011,-0.014 0.019,-0.023 0.007,-0.009 0.014,-0.017 0.02,-0.024 z"
   style="fill-rule:nonzero"
   id="path57"
   inkscape:connector-curvature="0" />
            </g>
        </g>
    </g>
</svg>