<?xml version="1.0" encoding="UTF-8" standalone="no"?>
<svg
   xmlns:dc="http://purl.org/dc/elements/1.1/"
   xmlns:cc="http://creativecommons.org/ns#"
   xmlns:rdf="http://www.w3.org/1999/02/22-rdf-syntax-ns#"
   xmlns:svg="http://www.w3.org/2000/svg"
   xmlns="http://www.w3.org/2000/svg"
   xmlns:sodipodi="http://sodipodi.sourceforge.net/DTD/sodipodi-0.dtd"
   xmlns:inkscape="http://www.inkscape.org/namespaces/inkscape"
   version="1.0"
   viewBox="0 0 2123.1292 2970"
   preserveAspectRatio="xMidYMid"
   id="svg2064"
   sodipodi:version="0.32"
   inkscape:version="0.92.5 (2060ec1f9f, 2020-04-08)"
   width="38.014122"
   height="30"
   sodipodi:docname="ufal.svg"
   style="fill-rule:evenodd">
  <metadata
     id="metadata2219">
    <rdf:RDF>
      <cc:Work
         rdf:about="">
        <dc:format>image/svg+xml</dc:format>
        <dc:type
           rdf:resource="http://purl.org/dc/dcmitype/StillImage" />
        <dc:title></dc:title>
      </cc:Work>
    </rdf:RDF>
  </metadata>
  <defs
     id="defs2217" />
  <sodipodi:namedview
     inkscape:window-height="1016"
     inkscape:window-width="1848"
     inkscape:pageshadow="2"
     inkscape:pageopacity="0.0"
     guidetolerance="10.0"
     gridtolerance="10.0"
     objecttolerance="10.0"
     borderopacity="1.0"
     bordercolor="#666666"
     pagecolor="#ffffff"
     id="base"
     inkscape:zoom="1.4133333"
     inkscape:cx="141.07328"
     inkscape:cy="82.679732"
     inkscape:window-x="72"
     inkscape:window-y="27"
     inkscape:current-layer="svg2064"
     width="376px"
     height="300px"
     showgrid="false"
     fit-margin-top="0"
     fit-margin-left="0"
     fit-margin-right="0"
     fit-margin-bottom="0"
     inkscape:window-maximized="1" />
  <g
     visibility="visible"
     id="Výchozí"
     style="visibility:visible"
     transform="matrix(0.10559756,0,0,0.10559756,-34.038758,-82.211146)">
    <desc
       id="desc2067">Master slide</desc>
  </g>
  <g
     visibility="visible"
     id="page1"
     transform="matrix(0.87378641,0,0,0.87378641,-8270.9112,-11575.049)"
     style="visibility:visible">
    <desc
       id="desc2070">Slide</desc>
    <g
       id="g2072">
      <desc
         id="desc2074">Group</desc>
      <g
         id="g2076">
        <desc
           id="desc2078">Drawing</desc>
        <g
           id="g2080">
          <g
             id="g2082" />
        </g>
      </g>
      <g
         id="g2084">
        <desc
           id="desc2086">Drawing</desc>
        <g
           id="g2088">
          <g
             style="fill:#e36646;stroke:none"
             id="g2090">
            <path
               d="m 9786,13973 v 280 l 2059,239 v -62 z"
               id="path2092"
               inkscape:connector-curvature="0" />
          </g>
          <g
             id="g2094" />
        </g>
      </g>
      <g
         id="g2096">
        <desc
           id="desc2098">Drawing</desc>
        <g
           id="g2100">
          <g
             style="fill:#f47b20;stroke:none"
             id="g2102">
            <path
               d="m 9786,13973 v 280 l 2059,239 v -62 z"
               id="path2104"
               inkscape:connector-curvature="0" />
          </g>
          <g
             id="g2106" />
        </g>
      </g>
      <g
         id="g2108">
        <desc
           id="desc2110">Drawing</desc>
        <g
           id="g2112">
          <g
             style="fill:#e36646;stroke:none"
             id="g2114">
            <path
               d="m 11490,15476 354,-198 v -259 l -373,416 z"
               id="path2116"
               inkscape:connector-curvature="0" />
          </g>
          <g
             id="g2118" />
        </g>
      </g>
      <g
         id="g2120">
        <desc
           id="desc2122">Drawing</desc>
        <g
           id="g2124">
          <g
             style="fill:#f47b20;stroke:none"
             id="g2126">
            <path
               d="m 11490,15476 354,-198 v -259 l -373,416 z"
               id="path2128"
               inkscape:connector-curvature="0" />
          </g>
          <g
             id="g2130" />
        </g>
      </g>
      <g
         id="g2132">
        <desc
           id="desc2134">Drawing</desc>
        <g
           id="g2136">
          <g
             style="fill:#e36646;stroke:none"
             id="g2138">
            <path
               d="m 10753,15031 1091,-168 v -238 l -1091,363 z"
               id="path2140"
               inkscape:connector-curvature="0" />
          </g>
          <g
             id="g2142" />
        </g>
      </g>
      <g
         id="g2144">
        <desc
           id="desc2146">Drawing</desc>
        <g
           id="g2148">
          <g
             style="fill:#f47b20;stroke:none"
             id="g2150">
            <path
               d="m 10753,15031 1091,-168 v -238 l -1091,363 z"
               id="path2152"
               inkscape:connector-curvature="0" />
          </g>
          <g
             id="g2154" />
        </g>
      </g>
      <g
         id="g2156">
        <desc
           id="desc2158">Drawing</desc>
        <g
           id="g2160">
          <g
             style="fill:#f47b20;stroke:none"
             id="g2162">
            <path
               d="m 9454,13517 v 963 l -2,31 -6,29 -9,27 -13,27 -16,24 -18,24 -21,21 -23,19 -25,18 -26,15 -28,13 -29,12 -29,8 -30,7 -29,4 -30,1 -29,-1 -30,-4 -29,-7 -28,-8 -28,-12 -27,-13 -25,-15 -24,-18 -22,-19 -20,-21 -18,-24 -14,-24 -13,-27 -9,-27 -5,-29 -2,-31 v -963 h -270 v 984 l 3,51 10,48 15,45 20,42 25,39 30,36 33,33 37,29 40,26 43,23 44,19 47,16 48,13 48,9 49,5 49,2 51,-2 51,-5 50,-9 49,-13 47,-16 46,-19 43,-23 41,-26 38,-29 33,-33 30,-36 26,-39 20,-42 15,-45 10,-48 3,-51 v -984 z"
               id="path2164"
               inkscape:connector-curvature="0" />
          </g>
          <g
             id="g2166" />
        </g>
      </g>
      <g
         id="g2168">
        <desc
           id="desc2170">Drawing</desc>
        <g
           id="g2172">
          <g
             style="fill:#f47b20;stroke:none"
             id="g2174">
            <path
               d="m 9839,14542 v 1388 h 269 v -611 h 572 v -176 h -572 v -426 h 729 v -175 z"
               id="path2176"
               inkscape:connector-curvature="0" />
          </g>
          <g
             id="g2178" />
        </g>
      </g>
      <g
         id="g2180">
        <desc
           id="desc2182">Drawing</desc>
        <g
           id="g2184">
          <g
             style="fill:#f47b20;stroke:none"
             id="g2186">
            <path
               d="m 11764,16614 -469,-1348 v -10 h -280 v 10 l -489,1348 v 32 h 176 v -11 l 167,-466 h 458 l 155,466 11,11 h 281 z m -500,-621 h -333 l 167,-467 z"
               id="path2188"
               inkscape:connector-curvature="0" />
          </g>
          <g
             id="g2190" />
        </g>
      </g>
      <g
         id="g2192">
        <desc
           id="desc2194">Drawing</desc>
        <g
           id="g2196">
          <g
             style="fill:#f47b20;stroke:none"
             id="g2198">
            <path
               d="m 12263,15360 v -1201 h -271 v 1388 h 842 v -187 z"
               id="path2200"
               inkscape:connector-curvature="0" />
          </g>
          <g
             id="g2202" />
        </g>
      </g>
      <g
         id="g2204">
        <desc
           id="desc2206">Drawing</desc>
        <g
           id="g2208">
          <g
             style="fill:#f47b20;stroke:none"
             id="g2210">
            <path
               d="m 9131,13496 h -93 l 11,-31 8,-31 8,-31 5,-31 4,-32 3,-31 2,-31 v -31 h 199 l -1,17 -2,17 -4,17 -6,17 -6,16 -8,17 -9,16 -10,15 -22,31 -25,30 -27,28 z"
               id="path2212"
               inkscape:connector-curvature="0" />
          </g>
          <g
             id="g2214" />
        </g>
      </g>
    </g>
  </g>
</svg>
